<?xml version="1.0" standalone="no"?>
<!DOCTYPE svg PUBLIC "-//W3C//DTD SVG 20010904//EN"
 "http://www.w3.org/TR/2001/REC-SVG-20010904/DTD/svg10.dtd">
<svg version="1.0" xmlns="http://www.w3.org/2000/svg"
 width="32.000000pt" height="32.000000pt" viewBox="0 0 32.000000 32.000000"
 preserveAspectRatio="xMidYMid meet">

<g transform="translate(0.000000,32.000000) scale(0.100000,-0.100000)"
fill="#000000" stroke="none">
<path d="M0 269 l0 -50 48 3 47 3 3 48 3 47 -50 0 -51 0 0 -51z"/>
<path d="M112 273 l3 -48 45 0 45 0 3 48 3 47 -51 0 -51 0 3 -47z"/>
<path d="M222 273 l3 -48 48 -3 47 -3 0 50 0 51 -51 0 -50 0 3 -47z"/>
<path d="M0 160 l0 -51 48 3 47 3 0 45 0 45 -47 3 -48 3 0 -51z"/>
<path d="M117 204 c-4 -4 -7 -25 -7 -46 0 -48 19 -57 67 -34 30 14 34 20 31
49 -3 30 -6 32 -43 35 -23 2 -44 0 -48 -4z"/>
<path d="M224 195 c-4 -8 -4 -22 -1 -30 5 -12 14 -10 52 11 25 14 45 28 45 30
0 2 -20 4 -45 4 -31 0 -47 -5 -51 -15z"/>
<path d="M0 65 c0 -19 3 -35 6 -35 16 0 93 53 88 61 -3 5 -25 9 -50 9 -44 0
-44 0 -44 -35z"/>
</g>
</svg>
